<?xml version="1.0" standalone="no"?>
<!DOCTYPE svg PUBLIC "-//W3C//DTD SVG 20010904//EN"
 "http://www.w3.org/TR/2001/REC-SVG-20010904/DTD/svg10.dtd">
<svg version="1.0" xmlns="http://www.w3.org/2000/svg"
 width="260.000000pt" height="260.000000pt" viewBox="0 0 260.000000 260.000000"
 preserveAspectRatio="xMidYMid meet">
<metadata>
Created by potrace 1.11, written by Peter Selinger 2001-2013
</metadata>
<g transform="translate(0.000000,260.000000) scale(0.100000,-0.100000)"
fill="#000000" stroke="none">
<path d="M1199 2309 c-203 -21 -398 -112 -568 -265 l-53 -48 69 -12 c101 -17
192 -64 274 -142 39 -36 79 -78 89 -92 l20 -27 -44 -76 c-24 -42 -61 -117 -82
-167 -21 -49 -41 -90 -44 -90 -3 0 -22 33 -42 73 -49 94 -104 156 -164 187
-39 19 -68 25 -146 28 l-96 4 5 -43 c15 -131 86 -333 196 -556 68 -140 68
-140 138 -50 45 57 104 169 169 322 129 305 238 462 384 557 104 67 162 80
399 85 l207 6 0 47 c0 46 -1 48 -60 89 -76 53 -227 125 -306 145 -54 14 -232
38 -259 34 -5 0 -44 -4 -86 -9z"/>
<path d="M1516 1664 c-106 -33 -163 -119 -335 -503 -88 -196 -143 -282 -243
-385 l-88 -89 72 -86 c163 -196 305 -314 378 -314 64 0 182 89 307 233 l66 75
-103 12 c-179 21 -271 64 -377 174 -91 93 -89 86 -40 171 24 41 60 116 82 166
21 51 42 92 45 92 3 0 23 -35 45 -78 22 -44 61 -99 91 -129 72 -73 113 -83
326 -83 l168 0 0 123 c0 126 6 147 41 147 9 0 28 -9 43 -21 l26 -21 26 59 c64
143 134 352 134 397 0 6 -47 -36 -104 -92 -148 -146 -166 -141 -166 45 l0 123
-172 -1 c-124 0 -187 -5 -222 -15z"/>
</g>
</svg>
